<?xml version="1.0" encoding="UTF-8" standalone="no"?>
<!DOCTYPE svg PUBLIC "-//W3C//DTD SVG 1.1//EN" "http://www.w3.org/Graphics/SVG/1.1/DTD/svg11.dtd">
<svg width="100%" height="100%" viewBox="0 0 256 256" version="1.1" xmlns="http://www.w3.org/2000/svg" xmlns:xlink="http://www.w3.org/1999/xlink" xml:space="preserve" xmlns:serif="http://www.serif.com/" style="fill-rule:evenodd;clip-rule:evenodd;stroke-linejoin:round;stroke-miterlimit:1.41421;">
    <g id="transparent" transform="matrix(8,0,0,8,0,0)">
        <rect x="0" y="0" width="32" height="32" style="fill:none;"/>
        <path d="M16,0C24.831,0 32,7.169 32,16C32,24.831 24.831,32 16,32C7.169,32 0,24.831 0,16C0,7.169 7.169,0 16,0ZM20.394,11.482L18.108,11.482L21.956,22.156L21.8,22.674C21.438,23.748 20.872,24.158 19.876,24.158C19.681,24.158 19.358,24.148 19.192,24.119L19.192,25.926C19.388,25.955 19.886,25.975 20.062,25.975C22.229,25.975 23.235,25.145 24.144,22.557L28.108,11.482L25.882,11.482L23.226,19.93L23.06,19.93L20.394,11.482ZM11.468,8.025L5.892,8.025L5.892,22.117L8.079,22.117L8.079,16.746L11.165,16.746L14.036,22.117L16.565,22.117L13.401,16.385C15.12,15.799 16.136,14.256 16.136,12.361C16.136,9.715 14.31,8.025 11.468,8.025ZM11.224,14.881L8.079,14.881L8.079,9.949L11.165,9.949C12.854,9.949 13.89,10.877 13.89,12.41C13.89,13.982 12.913,14.881 11.224,14.881Z"/>
    </g>
</svg>
